<svg width="24" height="24" viewBox="0 0 24 24" fill="none" xmlns="http://www.w3.org/2000/svg">
<path d="M14.7 17.3C14.5167 17.4833 14.2833 17.575 14 17.575C13.7167 17.575 13.4833 17.4833 13.3 17.3L8.69999 12.7C8.59999 12.6 8.52899 12.4917 8.48699 12.375C8.44565 12.2583 8.42499 12.1333 8.42499 12C8.42499 11.8667 8.44999 11.7373 8.49999 11.612C8.54999 11.4873 8.61665 11.3833 8.69999 11.3L13.3 6.70001C13.4833 6.51668 13.7167 6.42501 14 6.42501C14.2833 6.42501 14.5167 6.51668 14.7 6.70001C14.8833 6.88335 14.975 7.11668 14.975 7.40001C14.975 7.68335 14.8833 7.91668 14.7 8.10001L10.8 12L14.7 15.9C14.8833 16.0833 14.975 16.3167 14.975 16.6C14.975 16.8833 14.8833 17.1167 14.7 17.3V17.3Z" fill="black"/>
</svg>
