<svg width="24" height="24" viewBox="0 0 24 24" fill="none" xmlns="http://www.w3.org/2000/svg">
<path d="M9.30001 6.69999C9.48335 6.51665 9.71668 6.42499 10 6.42499C10.2833 6.42499 10.5167 6.51665 10.7 6.69999L15.3 11.3C15.4 11.4 15.471 11.5083 15.513 11.625C15.5543 11.7417 15.575 11.8667 15.575 12C15.575 12.1333 15.55 12.2627 15.5 12.388C15.45 12.5127 15.3833 12.6167 15.3 12.7L10.7 17.3C10.5167 17.4833 10.2833 17.575 10 17.575C9.71668 17.575 9.48335 17.4833 9.30001 17.3C9.11668 17.1167 9.02501 16.8833 9.02501 16.6C9.02501 16.3167 9.11668 16.0833 9.30001 15.9L13.2 12L9.30001 8.09999C9.11668 7.91665 9.02501 7.68332 9.02501 7.39999C9.02501 7.11665 9.11668 6.88332 9.30001 6.69999V6.69999Z" fill="black"/>
</svg>
